<svg width="326" height="263" viewBox="0 0 326 263" fill="none" xmlns="http://www.w3.org/2000/svg">
<path d="M24.5115 212.868C38.7438 225.313 53.8601 222.824 74.9077 222.824C74.9077 222.824 88.1108 243.447 101.272 246.968C108.431 248.883 113.003 248.842 120.171 246.968C130.504 244.268 142 238.189 142 238.189C142 238.189 156.469 247.457 168.001 253.689C193.861 267.662 234.921 264.746 256 243.517C266.555 232.887 273 217.845 273 217.845C273 217.845 295.872 209.531 308.5 196.533C323.435 181.159 329.416 131.733 320.885 111.55C315.448 98.6862 294.959 89.6329 294.959 89.6329C294.959 89.6329 296.372 63.4248 289.387 51.0649C279.531 33.6245 265.729 27.1576 246.69 25.6763C230.874 24.4458 208.241 29.5318 208.241 29.5318C208.241 29.5318 189.212 13.9857 172.729 7.00822C148.4 -3.2911 118.396 0.11813 94.3719 7.00827C70.3477 13.8984 47.9051 41.6064 47.9051 41.6064C47.9051 41.6064 29.6093 43.2769 14.7122 57.7307C2.79445 69.2938 -1.95226 95.9896 1.70859 111.55C5.36943 127.11 14.7122 169.06 14.7122 169.06C14.7122 169.06 10.2792 200.422 24.5115 212.868Z" fill="white" stroke="white"/>
</svg>
